<svg xmlns="http://www.w3.org/2000/svg" height="400" width="650">
  <!-- shadows -->
  <ellipse cx="250" cy="300" rx="70" ry="20" fill="silver" />
  <ellipse cx="520" cy="300" rx="70" ry="20" fill="silver" />

  <!-- fox -->
  <ellipse cx="130" cy="250" rx="70" ry="27" transform="rotate(15 250 130)" fill="orange" />
  <polygon points="58,221 38,196 68,186" fill="white" />
  <circle cx="250" cy="200" r="100" fill="orange"/>
  <!-- fox eyes, nose and mouth-->
  <circle cx="290" cy="180" r="40" fill="white" />
  <circle cx="300" cy="180" r="8" fill="black" />
  <circle cx="240" cy="180" r="40" fill="white" />
  <circle cx="250" cy="180" r="8" fill="black" />
  <circle cx="270" cy="218" r="12" fill="black"/>
  <ellipse cx="255" cy="250" rx="18" ry="9" fill="crimson" />
  <!-- fox ears -->
  <polygon points="230,110 170,150 180,98" fill="orange" />
  <polygon points="208,112 180,132 185,105" fill="black" />
  <polygon points="260,115 310,90 322,140" fill="orange" />
  <polygon points="285,110 306,99 313,125" fill="black" />

  <!-- kolobok -->
  <circle cx="520" cy="200" r="100" fill="gold" />
  <!-- kolobok eyes and mouth-->
  <circle cx="480" cy="180" r="40" fill="white" />
  <circle cx="470" cy="180" r="8" fill="black" />
  <circle cx="535" cy="180" r="40" fill="white" />
  <circle cx="528" cy="180" r="8" fill="black" />
  <ellipse cx="508" cy="250" rx="9" ry="16" fill="crimson" />
</svg>
