<?xml version="1.0" encoding="utf-8"?>
<!-- Generator: Adobe Illustrator 21.1.0, SVG Export Plug-In . SVG Version: 6.00 Build 0)  -->
<svg version="1.0" id="Слой_1" xmlns="http://www.w3.org/2000/svg" xmlns:xlink="http://www.w3.org/1999/xlink" x="0px" y="0px"
	 viewBox="0 0 161 177" style="enable-background:new 0 0 161 177;" xml:space="preserve">
<style type="text/css">
	.st0{fill:#771B03;}
	.st1{fill:#822809;}
	.st2{fill:#9B4619;}
	.st3{fill:#FDB36C;}
	.st4{fill:#FFF2A9;}
	.st5{fill:#7E2103;}
	.st6{fill:#87300F;}
	.st7{fill:#8A3412;}
	.st8{fill:url(#SVGID_1_);}
	.st9{fill:url(#SVGID_2_);}
	.st10{fill:#FFFFFF;}
	.st11{fill:#63300F;}
</style>
<g>
	<path class="st0" d="M131.3,138.8c2.5-1.1,2.8-2.4,3.4-5.2c6,3.3,11.8-2,9.8-8.7c-2.3-7.7-19.2-9-25.4-11.6
		c-4.6-1.9-9-3.9-13.8-4.7c-2.1,9.2-9,15.8,2.1,22.8C113.7,135.4,124.5,141.7,131.3,138.8z"/>
	<path class="st0" d="M106.4,173.1c-13.3,3.5-12.8-25.8-5.3-33.6c3.1-3.3,10-10.8,14.4-8.3c3.9,2.3,3.9,10.5,3.7,15.3
		C118.7,157.1,114.8,170.9,106.4,173.1z"/>
	<path class="st0" d="M121.7,93.2c0.6-3.1-0.2-4.2-2.2-6.7c6.2-3.2,5.3-12.3-1.2-15.1C110.7,68.2,99.8,83,94,87
		c-4.2,2.9-8.4,5.6-11.9,9.5c6.2,8.3,7.5,19.2,19.7,13.7C108.7,107.1,120,101.5,121.7,93.2z"/>
	<path class="st1" d="M119,137.6c-6.1,14.5-20.8,24.3-36.4,24.8c-13.6,0.4-36-2.2-38.1-16c-1.7-11.8-3.3-28,7.7-36.9
		c14.5-11.8,32-14.6,49.6-8.9C116.7,105.3,125.2,122.9,119,137.6z"/>
	<path class="st2" d="M79.8,156.4c-13.8,0-28.2-3.4-29.3-10.9c-1.8-12.4-2.4-24.9,5.6-31.4c8.5-6.9,18.1-10.4,28.4-10.4
		c5.1,0,10.3,0.9,15.5,2.6c5.6,1.8,10.3,6.1,12.9,11.8c2.6,5.6,2.8,11.9,0.5,17.2c-5.1,12.2-17.6,20.6-31.1,21.1
		C81.6,156.4,80.7,156.4,79.8,156.4z"/>
	<path class="st3" d="M91.1,121.3c-5.5,6.7-8.1,15.4-8,24c0,4.3-0.2,11.4,1.2,17c15-1.1,28.9-10.6,34.8-24.6
		c3.4-8.2,2.3-17.3-2-24.6c-0.6-0.2-1.3-0.3-2-0.4C105.8,111,97,114.1,91.1,121.3z"/>
	
		<ellipse transform="matrix(0.9993 -3.645986e-02 3.645986e-02 0.9993 -5.1887 3.8338)" class="st4" cx="102.5" cy="144.2" rx="2.5" ry="2.5"/>
	<g>
		<path class="st0" d="M43.7,118.9C39.9,107,27.6,79.8,10.4,89.7c-5,2.9-13.2,14.2-8.5,20c4.4,5.3,10.3-4.1,13.7-6.7
			c13.6-10.2,17,27.4,20.4,35.7c6.7,15.9,20.5,28.4,38,20.1c2.1-1,4.2-2.2,6.2-3.4c-5.4-9.8-17.1-2.2-25.2-10.4
			C48.7,138.3,46.4,127.5,43.7,118.9z"/>
		<path class="st5" d="M57.6,171.1c0.1,8,15,5.3,18.9,3C83,170.4,92,156.8,88,147.9c-3.1-6.9-10.5-11.8-20.5-10.6
			c-5.8,0.7-18.9,10.3-15.9,16.2c1.9,3.8,7.7,1.1,6.8,7C57.8,164.4,57.6,166.2,57.6,171.1z"/>
		<path class="st6" d="M62.7,100.4c10.1,2.1,4.9,14.1,4.7,21.2c-0.3,7,6.3,12.6,4.4,19.7c-2.1,7.6-10.6,9.3-16.8,6.5
			c-7.6-3.5-11-11.6-0.4-12.2c-8.7,0-8.7-15.2-8.2-18.8C47.4,109.3,55.4,98.9,62.7,100.4z"/>
		
			<ellipse transform="matrix(0.9993 -3.642092e-02 3.642092e-02 0.9993 -1.5954 5.3431)" class="st0" cx="145.9" cy="46.5" rx="14.6" ry="14.3"/>
		
			<ellipse transform="matrix(0.9993 -3.645222e-02 3.645222e-02 0.9993 -1.6254 5.2497)" class="st3" cx="143.2" cy="47.2" rx="11.5" ry="10.3"/>
		<path class="st7" d="M84.6,0.6C53.9,1.7,29.6,26,28.9,55.5c-0.7-0.1-1.4-0.1-2.2-0.1c-8.6,0.3-15.3,7.4-15,15.9
			c0.3,8.5,7.5,15.1,16.1,14.7c2.9-0.1,5.6-1,7.9-2.5C45.9,101.8,66,113.8,88.7,113c31.9-1.2,56.8-27.3,55.7-58.3
			C143.2,23.7,116.5-0.6,84.6,0.6z"/>
		<path class="st2" d="M86.5,107C67.5,107,50,96.9,41,80.7c-0.8-1.5-2.2-2.5-3.8-2.9c-0.5-0.1-1-0.2-1.5-0.2c-1.1,0-2.3,0.3-3.2,1
			C31,79.4,29.3,80,27.6,80c-0.1,0-0.2,0-0.4,0c-5.2,0-9.4-3.9-9.5-9c-0.2-5.1,4-9.5,9.2-9.6l0.2,0c0.3,0,0.7,0,1.1,0.1
			c0.2,0,0.4,0,0.6,0c1.5,0,2.9-0.5,4-1.5c1.3-1.1,2-2.7,2-4.4C35.5,29.2,57.5,7.6,84.8,6.6c0.7,0,1.3,0,2,0
			c27.9,0,50.6,21.2,51.6,48.3c0.5,13.4-4.4,26.2-13.8,36c-9.4,9.9-22.2,15.6-36.1,16.1C87.8,107,87.1,107,86.5,107L86.5,107z"/>
		<path class="st3" d="M32,70.6c0.2,5.8,1.5,10.5-4.4,10.7c-5.9,0.2-10.9-4.3-11.1-10.2c-0.2-5.8,4.4-10.7,10.3-10.9
			C32.8,60,31.8,64.7,32,70.6z"/>
		<path class="st3" d="M144.3,59.3c-1.3,29-25.3,52.6-55.6,53.7c-18,0.7-34.3-6.7-45.3-18.9C41.2,83,43,71.3,52.4,64.2
			c-8.9-17-0.1-39.2,22.2-34.2c4.8,1.1,9,4,12.7,7.1c5-9.1,16.1-17.7,27.2-14.2c0,0,15.8,4.2,12.8,22.7
			C127.4,45.6,142.8,45.2,144.3,59.3z"/>
		
			<radialGradient id="SVGID_1_" cx="171.5811" cy="49.6308" r="5.4721" gradientTransform="matrix(1.8346 -0.1949 -0.2414 1.0568 -178.0643 41.5598)" gradientUnits="userSpaceOnUse">
			<stop  offset="0.1043" style="stop-color:#FB644F"/>
			<stop  offset="0.2388" style="stop-color:#FC7E59"/>
			<stop  offset="0.3993" style="stop-color:#FC9561"/>
			<stop  offset="0.5711" style="stop-color:#FDA667"/>
			<stop  offset="0.7602" style="stop-color:#FDB06B"/>
			<stop  offset="1" style="stop-color:#FDB36C"/>
		</radialGradient>
		<path class="st8" d="M137.4,57.4c0.5,1.9-4.8,4.8-11.8,6.6c-7,1.8-13.1,1.7-13.5-0.1c-0.5-1.9,4.8-4.8,11.8-6.6
			C130.9,55.4,137,55.5,137.4,57.4z"/>
		
			<radialGradient id="SVGID_2_" cx="150.4992" cy="58.7365" r="5.4719" gradientTransform="matrix(1.8448 -1.630000e-02 -0.3427 1.0285 -192.2278 13.3808)" gradientUnits="userSpaceOnUse">
			<stop  offset="0.1043" style="stop-color:#FB644F"/>
			<stop  offset="0.2388" style="stop-color:#FC7E59"/>
			<stop  offset="0.3993" style="stop-color:#FC9561"/>
			<stop  offset="0.5711" style="stop-color:#FDA667"/>
			<stop  offset="0.7602" style="stop-color:#FDB06B"/>
			<stop  offset="1" style="stop-color:#FDB36C"/>
		</radialGradient>
		<path class="st9" d="M78.2,69.4c0.3,1.9-5.3,4.3-12.4,5.4c-7.1,1.1-13.2,0.4-13.5-1.5c-0.3-1.9,5.3-4.3,12.4-5.4
			C71.9,66.8,77.9,67.5,78.2,69.4z"/>
		<path class="st10" d="M76.9,77.5c0,0,20.2-11.7,40.7-8.6c0,0,4,25.6-15.9,29.4C101.6,98.3,80.4,102.1,76.9,77.5z"/>
		<ellipse transform="matrix(0.9919 -0.1269 0.1269 0.9919 -6.8729 9.6877)" class="st11" cx="72.6" cy="58.8" rx="4.1" ry="7.2"/>
		
			<ellipse transform="matrix(0.9919 -0.1268 0.1268 0.9919 -5.6222 14.9884)" class="st11" cx="114.9" cy="51.6" rx="4.1" ry="7.2"/>
		<ellipse transform="matrix(0.9718 -0.2356 0.2356 0.9718 -11.5794 24.0285)" class="st7" cx="94.8" cy="60.5" rx="7.2" ry="4.2"/>
	</g>
</g>
</svg>
